<svg height='300px' width='300px'  fill="#000000" xmlns:dc="http://purl.org/dc/elements/1.1/" xmlns:cc="http://creativecommons.org/ns#" xmlns:rdf="http://www.w3.org/1999/02/22-rdf-syntax-ns#" xmlns:svg="http://www.w3.org/2000/svg" xmlns="http://www.w3.org/2000/svg" xmlns:sodipodi="http://sodipodi.sourceforge.net/DTD/sodipodi-0.dtd" xmlns:inkscape="http://www.inkscape.org/namespaces/inkscape" version="1.1" x="0px" y="0px" viewBox="0 0 100 100"><g transform="translate(0,-952.36218)"><path style="font-size:medium;font-style:normal;font-variant:normal;font-weight:normal;font-stretch:normal;text-indent:0;text-align:start;text-decoration:none;line-height:normal;letter-spacing:normal;word-spacing:normal;text-transform:none;direction:ltr;block-progression:tb;writing-mode:lr-tb;text-anchor:start;baseline-shift:baseline;opacity:1;color:#000000;fill:#000000;fill-opacity:1;stroke:none;stroke-width:2;marker:none;visibility:visible;display:inline;overflow:visible;enable-background:accumulate;font-family:Sans;-inkscape-font-specification:Sans" d="M 66.875 17 A 1.0001 1.0001 0 0 0 66.46875 17.21875 L 56.1875 25.9375 A 1.0001 1.0001 0 1 0 57.46875 27.46875 L 66.59375 19.75 L 68.90625 27.65625 A 1.0001 1.0001 0 0 0 70 28.34375 L 84.0625 26.5 L 74.4375 34.84375 A 1.0001 1.0001 0 0 0 74.65625 36.5 L 88.71875 43.03125 L 74.21875 45.5625 A 1.0001 1.0001 0 0 0 73.65625 47.21875 L 78.6875 52.6875 L 63.875 49.96875 A 1.0020485 1.0020485 0 0 0 63.5 51.9375 L 81.25 55.1875 A 1.0001 1.0001 0 0 0 82.15625 53.53125 L 76.34375 47.21875 L 92.15625 44.46875 A 1.0001 1.0001 0 0 0 92.4375 42.5625 L 76.90625 35.34375 L 87.875 25.8125 A 1.0001 1.0001 0 0 0 87.0625 24.0625 L 70.5625 26.25 L 68.0625 17.71875 A 1.0001 1.0001 0 0 0 66.875 17 z M 64.5625 29.3125 A 1.0001 1.0001 0 0 0 64.40625 29.34375 L 7.75 44.375 A 1.0004882 1.0004882 0 1 0 8.25 46.3125 L 47.59375 35.875 L 48.875 40.96875 L 33.125 45.15625 A 1.0045064 1.0045064 0 1 0 33.65625 47.09375 L 50.34375 42.65625 A 1.0001 1.0001 0 0 0 51.0625 41.46875 L 49.53125 35.34375 L 63.9375 31.53125 L 67.21875 43.6875 L 31.78125 53.125 A 1.0001 1.0001 0 0 0 31.03125 54.09375 L 31.5625 75.90625 L 25.875 72.78125 A 1.0001 1.0001 0 0 0 25.21875 72.65625 A 1.0001 1.0001 0 0 0 25.15625 72.6875 L 18.71875 74.40625 L 18.34375 57.96875 A 1.0001 1.0001 0 0 0 17.0625 57 L 12.53125 58.21875 L 10.59375 51.15625 A 1.0001 1.0001 0 1 0 8.6875 51.6875 L 10.84375 59.6875 A 1.0001 1.0001 0 0 0 12.0625 60.40625 L 16.375 59.25 L 16.90625 82 A 1.0001 1.0001 0 0 0 18.1875 82.96875 L 32.875 79.0625 A 1.0001 1.0001 0 0 0 33.625 78.0625 L 33.3125 65.625 C 34.094801 65.686441 34.947158 65.633712 35.8125 65.34375 L 41.71875 63.34375 C 43.330116 62.80385 44.711944 61.89725 45.625 60.71875 C 46.538056 59.54015 46.965579 58.02035 46.5625 56.53125 A 1.0001 1.0001 0 0 0 45.53125 55.78125 A 1.0001 1.0001 0 0 0 44.65625 57.0625 C 44.880547 57.8911 44.64945 58.702 44.03125 59.5 C 43.413009 60.298 42.378796 61.03815 41.09375 61.46875 L 35.1875 63.4375 C 34.583303 63.639957 33.923787 63.65691 33.28125 63.59375 L 33.09375 55.59375 L 38.25 57.8125 A 1.0001 1.0001 0 1 0 39.03125 56 L 35.0625 54.28125 L 68.71875 45.375 A 1.0001 1.0001 0 0 0 69.4375 44.15625 L 65.625 30.0625 A 1.0001 1.0001 0 0 0 64.5625 29.3125 z M 19.40625 35.53125 A 1.0001 1.0001 0 0 0 19.15625 35.59375 L 9.28125 38.1875 A 1.0045064 1.0045064 0 1 0 9.8125 40.125 L 19.65625 37.5 A 1.0001 1.0001 0 0 0 19.40625 35.53125 z M 25.28125 74.71875 L 30.5625 77.625 L 18.875 80.71875 L 18.78125 76.4375 L 25.28125 74.71875 z " transform="translate(0,952.36218)"></path></g></svg>