<svg height='300px' width='300px'  fill="#000000" xmlns="http://www.w3.org/2000/svg" xmlns:xlink="http://www.w3.org/1999/xlink" version="1.1" x="0px" y="0px" viewBox="0 0 64 64" style="enable-background:new 0 0 64 64;" xml:space="preserve"><g><g><path d="M62.9,30.9h-7.8C54.6,19,45,9.4,33.1,8.9V1.1C33.1,0.5,32.6,0,32,0s-1.1,0.5-1.1,1.1v7.8C19,9.4,9.4,19,8.9,30.9H1.1    C0.5,30.9,0,31.4,0,32s0.5,1.1,1.1,1.1h7.8c0.6,11.9,10.1,21.4,22,22v7.8c0,0.6,0.5,1.1,1.1,1.1s1.1-0.5,1.1-1.1v-7.8    c11.9-0.6,21.4-10.1,22-22h7.8c0.6,0,1.1-0.5,1.1-1.1S63.5,30.9,62.9,30.9z M48.8,30.9H33.1V15.2C41.5,15.8,48.2,22.5,48.8,30.9z     M30.9,15.2v15.7H15.2C15.8,22.5,22.5,15.8,30.9,15.2z M15.2,33.1h15.7v15.7C22.5,48.2,15.8,41.5,15.2,33.1z M33.1,48.8V33.1h15.7    C48.2,41.5,41.5,48.2,33.1,48.8z"></path></g></g></svg>