<svg height='300px' width='300px'  fill="#000000" xmlns="http://www.w3.org/2000/svg" xmlns:xlink="http://www.w3.org/1999/xlink" version="1.1" x="0px" y="0px" viewBox="0 0 64 64" enable-background="new 0 0 64 64" xml:space="preserve"><path d="M49.083,40.111c-1.473-1.273-0.838-12.426,5.689-30.158c0.286-0.777-0.111-1.64-0.889-1.926  c-0.212-0.078-0.43-0.101-0.642-0.083c-0.028-0.002-0.056-0.009-0.085-0.009c-12.05,0-19.448-3.549-19.448-6.094  c0-0.829-0.672-1.5-1.5-1.5c-0.021,0-0.041,0.005-0.062,0.006c-0.021-0.001-0.041-0.006-0.063-0.006c-0.829,0-1.5,0.671-1.5,1.5  c0,2.485-7.771,6.094-19.949,6.094c-0.032,0-0.063,0.007-0.095,0.01c-0.057,0.003-0.113,0.007-0.169,0.017  c-0.053,0.01-0.104,0.025-0.155,0.04c-0.033,0.01-0.066,0.014-0.099,0.026c-0.01,0.004-0.019,0.01-0.029,0.014  C10.034,8.063,9.984,8.09,9.934,8.117c-0.038,0.02-0.077,0.038-0.113,0.062C9.778,8.206,9.74,8.238,9.701,8.27  C9.664,8.3,9.626,8.327,9.592,8.36C9.558,8.394,9.528,8.432,9.497,8.468c-0.031,0.036-0.063,0.071-0.09,0.109  C9.377,8.619,9.355,8.665,9.33,8.708c-0.022,0.04-0.046,0.078-0.064,0.119c-0.02,0.044-0.033,0.092-0.049,0.14  c-0.015,0.045-0.032,0.09-0.043,0.138c-0.01,0.042-0.013,0.087-0.019,0.13C9.147,9.292,9.139,9.347,9.138,9.403  c0,0.011-0.003,0.021-0.003,0.032c0,0.034,0.008,0.066,0.01,0.1C9.148,9.59,9.151,9.644,9.161,9.698s0.025,0.106,0.041,0.158  c0.009,0.032,0.013,0.065,0.025,0.097c6.534,17.749,7.164,28.905,5.695,30.158c-3.329,0.355-5.787,4.601-5.787,10.167  c0,6.31,7.351,8.575,15.863,11.198c2.121,0.653,4.314,1.329,6.506,2.098c0.008,0.003,0.016,0.001,0.024,0.004  c0.151,0.051,0.31,0.08,0.472,0.08c0.162,0,0.321-0.029,0.472-0.08c0.008-0.002,0.017-0.001,0.024-0.004  c2.191-0.769,4.385-1.444,6.506-2.098c8.512-2.623,15.863-4.888,15.863-11.198C54.865,44.715,52.409,40.471,49.083,40.111z   M38.118,58.609c-1.988,0.613-4.042,1.254-6.118,1.968c-2.076-0.714-4.13-1.354-6.119-1.968c-7.376-2.272-13.746-4.236-13.746-8.331  c0-4.122,1.709-7.202,3.238-7.202c0.169,0,0.33-0.034,0.481-0.086c0.012-0.004,0.025-0.002,0.037-0.007  c0.01-0.004,0.018-0.01,0.027-0.014c0.057-0.022,0.111-0.051,0.165-0.08c5.4-2.454,0.762-20.345-3.331-31.993  c8.113-0.292,16.17-2.252,19.377-5.7c3.159,3.471,11.125,5.434,19.115,5.705c-4.093,11.648-8.729,29.537-3.327,31.989  c0.053,0.028,0.106,0.057,0.163,0.079c0.01,0.004,0.018,0.01,0.027,0.014c0.013,0.005,0.025,0.003,0.038,0.007  c0.148,0.051,0.307,0.084,0.473,0.085c0.003,0,0.007,0.002,0.01,0.002c0.001,0,0.002,0,0.003,0c1.527,0.006,3.233,3.083,3.233,7.201  C51.865,54.374,45.495,56.337,38.118,58.609z"></path></svg>