<svg height='300px' width='300px'  fill="#000000" xmlns="http://www.w3.org/2000/svg" xmlns:xlink="http://www.w3.org/1999/xlink" version="1.1" x="0px" y="0px" viewBox="0 0 100 100" enable-background="new 0 0 100 100" xml:space="preserve"><path fill="#000000" d="M54.26,6.172c0,0,23.664,6.334,25.41,58.348C79.67,64.52,84.018,17.513,54.26,6.172z"></path><path fill="#000000" d="M31.086,2.925c0,0,12.412,1.292,17.45,27.311C48.537,30.236,46.959,6.248,31.086,2.925z"></path><path fill="#000000" d="M22.57,12.333c0,0,16.653,4.458,17.882,41.06C40.453,53.393,43.511,20.313,22.57,12.333z"></path><path fill="#000000" d="M43.728,2.925c0,0,14.877,4.068,15.799,36.814C59.527,39.739,62.419,10.164,43.728,2.925z"></path><g><title>Layer 1</title><path d="M76.861,72.007c-6.211,5.117-18.875,6.979-28.297,4.146c-4.688-1.408-7.686-3.717-8.752-6.311   c0.532,3.264,1.62,7.94,1.513,9.283c-0.159,1.996,0.804,3.939,2.785,5.576c1.479,1.217,3.518,2.251,6.084,3.015   c9.121,2.728,21.424,0.892,27.449-4.094c2.406-1.987,3.445-4.175,3.26-6.263c-0.164-1.808-0.688-7.564-0.775-10.258   C79.813,68.768,78.75,70.448,76.861,72.007z"></path><path d="M78.67,63.263c-0.581-1.422-1.783-2.747-3.523-3.881l-0.02-0.101l-2.816-14.359c-0.074-0.41-0.633-0.998-1.338-1.599   c-1.701-4.349-8.977-20.684-23.807-25.433c-4.168-2.781-9.299-4.521-15.576-4.185c11.688,6.572,12.302,16.927,10.922,27.121   c-0.747,0.951-1.123,2.192-0.902,3.432l1.223,8.721c2.633-1.07,4.257-1.752,4.257-1.752c2.589,1.513,3.771,3.9,4.296,6.066   c0.638,2.625,0.308,4.922,0.308,4.922c-0.188,0.023-0.389,0.055-0.592,0.087c0.058-0.551,0.229-2.759-0.317-5.032   c-3.149,0.894-5.348,2.211-7.402,3.914c-1.797,1.498-2.809,3.108-3.109,4.705c-0.683,3.656,2.408,7.228,8.655,9.118   c8.969,2.72,21.036,0.938,26.948-3.979C78.845,68.561,79.691,65.771,78.67,63.263z"></path></g><g><path d="M46.57,51.355c0,0-1.596,0.67-4.186,1.723c-9.45,3.843-32.313,12.869-40.904,13.884v7.563V76.8v2.509l1.334-0.517V78.79   c1.011,1.157,2.201,1.776,3.518,1.33c5.318-3.177,25.176-12.216,37.578-16.164c2.895-0.921,5.385-1.567,7.188-1.792   C51.098,62.164,52.201,54.646,46.57,51.355z"></path></g><path fill="#000000" d="M21.989,77.542C20.607,77.363,19.115,77.183,17.5,77C17.5,77,19.36,77.267,21.989,77.542z"></path><path fill="#000000" d="M92.667,79.5c0,0-19.403-2.97,1.927-8.75c-4.817,1.193-14.754,3.409-15.51,1.583  c-0.114,0.507-0.3,0.968-0.519,1.406c3.477-0.349,8.685-0.927,8.685-0.927c-9,3.938,2.875,6.563,2.875,6.563s-15.688,2.25-2.75,7.75  c0,0-20.875-3.166-9.188,7.813c0,0-16.313-9.875-26.375,1.313c0,0,0.75-13-16.875-6c0,0,6.563-4.063-0.527-6.256  c0,0,10.527-2.682-2.821-5.494c0,0,13.598,0.75,5.418-5.671l13.456,6.047c-0.001,0,14.903,2.743,22.008-0.813  c-8.827,2.614-23.139-0.022-23.138-0.022L33.667,71c14.381,8.466-2.921,7.458-11.678,6.542C50.848,81.268,30.643,84,30.643,84  c11.754,1.242,5.23,5.616-0.206,8.312C55.126,82.185,51,97.834,51,97.834c11-13.875,29.923-0.947,29.923-0.947  c-16.756-14.167,9.744-8.783,9.744-8.783C72.334,81.27,92.667,79.5,92.667,79.5z"></path><path fill="#000000" d="M94.594,70.75c1.56-0.386,2.586-0.666,2.586-0.666C96.255,70.311,95.398,70.532,94.594,70.75z"></path><path fill="#000000" d="M30.437,92.312c-1.535,0.63-3.171,1.35-4.937,2.188C25.5,94.5,27.845,93.597,30.437,92.312z"></path></svg>