<svg height='300px' width='300px'  fill="#000000" xmlns="http://www.w3.org/2000/svg" xmlns:xlink="http://www.w3.org/1999/xlink" version="1.1" x="0px" y="0px" viewBox="0 0 50 50" style="enable-background:new 0 0 50 50;" xml:space="preserve"><style type="text/css">
	.st0{clip-path:url(#b);}
</style><g><defs><path id="a" d="M32.6,44.5c-3.5,3.6-8.4,3.2-8.9,3.2c-0.5,0-6.8-0.1-9-4.4c-1.9-5.3-0.3-8.6,1.8-11.7    c2.6-3.9,3.3-7.7,3.3-7.7s2.1,2.7,1.2,6.9c3.7-4.1,4.3-10.6,3.8-13.1C33.2,23.6,36.2,41,32.6,44.5z M35.1,9.5    c1.1,2.4,1.3,6.5-0.9,8.5C30.4,3.6,21.1,0.7,21.1,0.7c1.1,7.4-4,15.5-8.9,21.6c-0.2-3-0.4-5-1.9-7.8c-0.3,5.4-4.4,9.8-5.5,15.1    C3.3,36.9,5.5,40.2,9.9,44s11.4,5.1,13.9,5.1s12,0.4,19-11.2C49.9,26.3,38.4,11.9,35.1,9.5z"></path></defs><clipPath id="b"><use xlink:href="#a" style="" overflow="visible"></use></clipPath><rect x="-4.4" y="-8.1" class="st0" width="58.3" height="65.9"></rect></g></svg>