<svg height='300px' width='300px'  fill="#000000" xmlns="http://www.w3.org/2000/svg" viewBox="0 0 32 32" x="0px" y="0px"><title>tag</title><g data-name="awan"><path d="M27.42,6.42a.49.49,0,0,0-.6-.36.51.51,0,0,0-.37.6c0,.17,0,.41,0,.46s-.37.26-2-.68a2.62,2.62,0,0,0-2.32-.23,4.86,4.86,0,0,0-2,1.54l-5-.62a.51.51,0,0,0-.42.14L5.17,16.85a2.19,2.19,0,0,0,0,3.1l5.37,5.37a2.22,2.22,0,0,0,1.55.64,2.19,2.19,0,0,0,1.55-.65l9.58-9.57a.51.51,0,0,0,.14-.42l-.86-6.9A.51.51,0,0,0,22.06,8l-.71-.09a3.27,3.27,0,0,1,1.1-.75,1.69,1.69,0,0,1,1.48.15c1.51.88,2.5,1.08,3.1.62A1.47,1.47,0,0,0,27.42,6.42ZM22.33,15.2l-9.41,9.41a1.2,1.2,0,0,1-1.68,0L5.87,19.24a1.2,1.2,0,0,1,0-1.68l9.41-9.41,4.18.52a15.13,15.13,0,0,0-1,1.74,1.85,1.85,0,0,0-1.59.53,1.89,1.89,0,0,0,0,2.66,1.91,1.91,0,0,0,1.33.55,1.88,1.88,0,0,0,1.33-3.21.93.93,0,0,0-.15-.13,13.26,13.26,0,0,1,1.18-2l1,.12Zm-3.49-2.31a.88.88,0,0,1-1.25-1.25.8.8,0,0,1,.42-.21c-.16.37-.25.63-.27.67a.51.51,0,0,0,.31.64.45.45,0,0,0,.16,0,.49.49,0,0,0,.47-.34c.07-.17.15-.39.26-.64A.88.88,0,0,1,18.84,12.89Z"></path></g></svg>