<svg height='300px' width='300px'  fill="#000000" xmlns:dc="http://purl.org/dc/elements/1.1/" xmlns:cc="http://creativecommons.org/ns#" xmlns:rdf="http://www.w3.org/1999/02/22-rdf-syntax-ns#" xmlns:svg="http://www.w3.org/2000/svg" xmlns="http://www.w3.org/2000/svg" xmlns:sodipodi="http://sodipodi.sourceforge.net/DTD/sodipodi-0.dtd" xmlns:inkscape="http://www.inkscape.org/namespaces/inkscape" version="1.1" x="0px" y="0px" viewBox="0 0 128 128" enable-background="new 0 0 128 128" xml:space="preserve"><path style="" d="M 64 12.5 C 35.6 12.5 12.5 35.6 12.5 64 C 12.5 92.4 35.6 115.5 64 115.5 C 92.4 115.5 115.5 92.4 115.5 64 C 115.5 35.6 92.4 12.5 64 12.5 z M 64 15.5 C 90.7 15.5 112.5 37.3 112.5 64 C 112.5 90.7 90.7 112.5 64 112.5 C 37.3 112.5 15.5 90.7 15.5 64 C 15.5 37.3 37.3 15.5 64 15.5 z M 44.199219 42.099609 C 38.199219 47.499609 34.5 55.3 34.5 64 C 34.5 72.5 38.100781 80.1 43.800781 85.5 L 46.5 82.5 C 41.6 77.8 38.5 71.3 38.5 64 C 38.5 56.5 41.700391 49.799609 46.900391 45.099609 L 44.199219 42.099609 z M 83.800781 42.099609 L 81.099609 45.099609 C 86.299609 49.799609 89.5 56.5 89.5 64 C 89.5 71.3 86.4 77.8 81.5 82.5 L 84.199219 85.5 C 89.899219 80.1 93.5 72.5 93.5 64 C 93.5 55.3 89.800781 47.499609 83.800781 42.099609 z M 50.900391 49.5 C 47.000391 53.1 44.5 58.200391 44.5 63.900391 C 44.5 69.400391 46.8 74.400391 50.5 77.900391 L 53.199219 74.900391 C 50.299219 72.300391 48.5 68.3 48.5 64 C 48.5 59.5 50.499609 55.4 53.599609 52.5 L 50.900391 49.5 z M 77.099609 49.699219 L 74.400391 52.699219 C 77.500391 55.399219 79.5 59.5 79.5 64 C 79.5 68.3 77.700781 72.299609 74.800781 75.099609 L 77.5 78.099609 C 81.2 74.499609 83.5 69.599609 83.5 64.099609 C 83.5 58.399609 80.999609 53.199219 77.099609 49.699219 z M 64 58 A 6 6 0 0 0 58 64 A 6 6 0 0 0 64 70 A 6 6 0 0 0 70 64 A 6 6 0 0 0 64 58 z " fill="#000000"></path></svg>