<svg height='300px' width='300px'  fill="#000000" xmlns="http://www.w3.org/2000/svg" xmlns:xlink="http://www.w3.org/1999/xlink" version="1.1" x="0px" y="0px" viewBox="0 0 100 100" style="enable-background:new 0 0 100 100;" xml:space="preserve"><path d="M86.7,23.5l3.7-3.7L83.6,13l-3.7,3.7C82.4,18.8,84.7,21,86.7,23.5z"></path><path d="M90.9,53.6c0-7.5-2-14.4-5.5-20.5c-3.6-6.2-8.7-11.4-14.9-14.9c-6.1-3.5-13-5.5-20.5-5.5v40.9L29.5,89  c6.1,3.5,13,5.5,20.5,5.5s14.5-2,20.5-5.5l0,0c6.1-3.6,11.3-8.7,14.9-14.9l0,0C88.9,68,90.9,61.1,90.9,53.6z"></path><path d="M57.4,7.8V5.5h3.7V0H38.9v5.5h3.6v2.3c-22,3.6-38.9,22.7-38.9,45.8C3.6,79.2,24.4,100,50,100s46.4-20.8,46.4-46.4  C96.4,30.5,79.5,11.3,57.4,7.8z M50,97.6c-24.3,0-44-19.7-44-44s19.7-44,44-44s44,19.7,44,44S74.3,97.6,50,97.6z"></path></svg>