<svg height='300px' width='300px'  fill="#000000" xmlns="http://www.w3.org/2000/svg" xmlns:xlink="http://www.w3.org/1999/xlink" viewBox="0 0 10 16" version="1.1" x="0px" y="0px"><title>$</title><desc>Created with Sketch.</desc><g stroke="none" stroke-width="1" fill="none" fill-rule="evenodd"><g transform="translate(-219.000000, -196.000000)" fill="#000000"><g transform="translate(212.000000, 192.000000)"><path d="M11.3962264,20 L12.9056604,20 L12.9056604,18.3410138 C15.7358491,18.1013825 17,16.4423963 17,14.562212 C17,12.0921659 14.8679245,11.3732719 12.9056604,10.875576 L12.9056604,7.68663594 C13.8301887,7.87096774 14.7358491,8.29493088 15.4528302,8.99539171 L16.6981132,7.39170507 C15.7169811,6.47004608 14.4339623,5.88018433 12.9056604,5.71428571 L12.9056604,4 L11.3962264,4 L11.3962264,5.69585253 C8.96226415,5.89861751 7.41509434,7.39170507 7.41509434,9.2718894 C7.41509434,11.6682028 9.45283019,12.3502304 11.3962264,12.8294931 L11.3962264,16.40553 C10.0377358,16.202765 8.94339623,15.5023041 8.24528302,14.7465438 L7,16.4239631 C8,17.437788 9.45283019,18.1935484 11.3962264,18.3410138 L11.3962264,20 Z M14.9056604,14.6648657 C14.9056604,15.3372795 14.3283408,16.0441761 12.9056604,16.2165899 L12.9056604,13.2165899 C14.039681,13.5096933 14.9056604,13.8890037 14.9056604,14.6648657 Z M9.67924528,9.16134903 C9.67924528,8.3205847 10.4484761,7.72822801 11.6792453,7.59447005 L11.6792453,10.59447 C10.5144101,10.2887376 9.67924528,9.90657196 9.67924528,9.16134903 Z"></path></g></g></g></svg>